<?xml version="1.0" encoding="utf-8"?>
<svg viewBox="0 0 500 500" xmlns="http://www.w3.org/2000/svg" xmlns:bx="https://boxy-svg.com">
  <defs>
    <linearGradient id="gradient-1" gradientUnits="userSpaceOnUse" x1="271.604" y1="58.891" x2="271.604" y2="420.92" gradientTransform="matrix(0.761939, 0.647649, -0.778627, 0.916031, 272.64267, -151.613839)">
      <stop offset="0" style="stop-color: rgb(253, 222, 71);"/>
      <stop offset="1" style="stop-color: rgb(232, 193, 0);"/>
    </linearGradient>
    <linearGradient id="gradient-0" gradientUnits="userSpaceOnUse" x1="271.22" y1="94.806" x2="271.22" y2="421.048" spreadMethod="pad" gradientTransform="matrix(0.930423, 0.366488, -0.366554, 0.930593, 120.84499, -65.221968)">
      <stop offset="0" style="stop-color: rgb(255, 255, 255);"/>
      <stop offset="1" style="stop-color: rgb(232, 232, 232);"/>
    </linearGradient>
  </defs>
  <path d="M 194.685 58.891 H 452.619 V 316.825 A 104.095 104.095 0 0 1 348.524 420.92 H 194.685 A 104.095 104.095 0 0 1 90.59 316.825 V 162.986 A 104.095 104.095 0 0 1 194.685 58.891 Z" style="stroke-width: 7px; fill: url(#gradient-1);" bx:shape="rect 90.59 58.891 362.029 362.029 104.095 0 104.095 104.095 1@800ea1fb"/>
  <path d="M 223.796 420.66 L 317.611 420.532 L 314 352.078 C 314 352.078 336.404 319.063 345.247 275.435 C 354.09 231.807 376.494 174.619 376.494 174.619 C 376.494 174.619 369.42 162.238 358.807 167.544 C 348.194 172.85 327.56 240.65 327.56 240.65 L 318.127 236.523 C 318.127 236.523 339.352 135.118 339.352 134.529 C 339.352 133.94 333.456 116.842 321.665 129.812 C 309.874 142.782 294.545 224.143 294.545 224.143 L 283.933 222.374 L 292.187 106.23 C 292.187 106.23 282.164 93.259 273.91 105.64 C 265.656 118.021 254.454 226.501 254.454 226.501 L 247.969 227.68 L 239.715 125.685 C 239.715 125.685 225.566 112.715 219.67 128.633 C 213.774 144.551 220.849 281.33 220.849 281.33 L 171.326 250.673 C 171.326 250.673 154.228 252.442 160.714 265.412 C 167.2 278.382 211.416 320.242 211.416 320.242 L 232.051 344.414 L 238.536 355.616 L 223.796 420.66 Z" style="fill-opacity: 0.27; fill: rgb(186, 186, 186);"/>
  <path d="M 226.741 421.048 L 320.556 420.92 L 317.35 346.598 C 317.35 346.598 339.754 313.583 348.597 269.955 C 357.44 226.327 379.844 169.139 379.844 169.139 C 379.844 169.139 372.77 156.758 362.157 162.064 C 351.544 167.37 330.91 235.17 330.91 235.17 L 321.477 231.043 C 321.477 231.043 342.702 129.638 342.702 129.049 C 342.702 128.46 336.806 111.362 325.015 124.332 C 313.224 137.302 297.895 218.663 297.895 218.663 L 287.283 216.894 L 295.537 100.75 C 295.537 100.75 285.514 87.779 277.26 100.16 C 269.006 112.541 257.804 221.021 257.804 221.021 L 251.319 222.2 L 243.065 120.205 C 243.065 120.205 228.916 107.235 223.02 123.153 C 217.124 139.071 224.199 275.85 224.199 275.85 L 174.676 245.193 C 174.676 245.193 157.578 246.962 164.064 259.932 C 170.55 272.902 214.766 314.762 214.766 314.762 L 235.401 338.934 L 241.886 350.136 L 226.741 421.048 Z" style="fill: url(#gradient-0);"/>
</svg>